<?xml version="1.0" encoding="utf-8"?>
<!-- Generator: Adobe Illustrator 16.0.0, SVG Export Plug-In . SVG Version: 6.00 Build 0)  -->
<!DOCTYPE svg PUBLIC "-//W3C//DTD SVG 1.1//EN" "http://www.w3.org/Graphics/SVG/1.1/DTD/svg11.dtd">
<svg version="1.1" id="圖層_1" xmlns="http://www.w3.org/2000/svg" xmlns:xlink="http://www.w3.org/1999/xlink" x="0px" y="0px"
	 width="66px" height="66px" viewBox="0 0 66 66" enable-background="new 0 0 66 66" xml:space="preserve">
<g>
	<path fill="#3ACCBA" d="M32.998-0.016c-18.203,0-33.016,14.808-33.016,33.015c0,18.205,14.813,33.017,33.016,33.017
		c18.208,0,33.02-14.812,33.02-33.017C66.018,14.792,51.206-0.016,32.998-0.016z"/>
	<path fill="#FFFFFF" d="M46.229,20.712l-0.02-0.035l-5.527-3.751l-0.068-0.021c-0.187-0.102-0.387-0.176-0.612-0.176H39.5H26.615
		H26.01c-0.321,0-0.606,0.129-0.831,0.324l-0.027,0.012l-5.354,3.605l-0.02,0.035c-0.348,0.229-0.591,0.604-0.591,1.051v0.604
		v27.386h27.623V22.36v-0.604C46.811,21.313,46.57,20.942,46.229,20.712z"/>
	<polygon fill="#4F80FF" points="33.302,43.417 28.796,43.417 28.796,49.746 33.302,49.746 37.809,49.746 37.809,43.417 	"/>
	<g>
		<path fill="#4F80FF" d="M28.168,23.589c-0.014-0.001-0.02-0.013-0.03-0.013h-0.13l0.013,0.013h-3.578h-0.153
			c-0.183,0-0.329,0.146-0.329,0.328v0.129V27.3h4.506v-3.24v-0.155C28.465,23.736,28.332,23.608,28.168,23.589z"/>
		<path fill="#4F80FF" d="M28.168,29.17c-0.014-0.002-0.02-0.014-0.03-0.014h-0.13l0.013,0.014h-3.578h-0.153
			c-0.183,0-0.329,0.146-0.329,0.328v0.128v3.254h4.506v-3.241v-0.155C28.465,29.317,28.332,29.187,28.168,29.17z"/>
		<path fill="#4F80FF" d="M28.168,35.038c-0.014-0.001-0.02-0.012-0.03-0.012h-0.13l0.013,0.012h-3.578h-0.153
			c-0.183,0-0.329,0.146-0.329,0.328v0.129v3.254h4.506v-3.241v-0.155C28.465,35.187,28.332,35.056,28.168,35.038z"/>
		<path fill="#4F80FF" d="M35.258,23.589c-0.012-0.001-0.02-0.013-0.031-0.013h-0.129l0.012,0.013h-3.577h-0.153
			c-0.183,0-0.328,0.146-0.328,0.328v0.129V27.3h4.504v-3.24v-0.155C35.555,23.736,35.423,23.608,35.258,23.589z"/>
		<path fill="#4F80FF" d="M35.258,29.17c-0.012-0.002-0.02-0.014-0.031-0.014h-0.129l0.012,0.014h-3.577h-0.153
			c-0.183,0-0.328,0.146-0.328,0.328v0.128v3.254h4.504v-3.241v-0.155C35.555,29.317,35.423,29.187,35.258,29.17z"/>
		<path fill="#4F80FF" d="M35.258,35.038c-0.012-0.001-0.02-0.012-0.031-0.012h-0.129l0.012,0.012h-3.577h-0.153
			c-0.183,0-0.328,0.146-0.328,0.328v0.129v3.254h4.504v-3.241v-0.155C35.555,35.187,35.423,35.056,35.258,35.038z"/>
		<path fill="#4F80FF" d="M42.348,23.589c-0.014-0.001-0.02-0.013-0.031-0.013h-0.127l0.011,0.013h-3.577h-0.154
			c-0.183,0-0.328,0.146-0.328,0.328v0.129V27.3h4.504v-3.24v-0.155C42.645,23.736,42.512,23.608,42.348,23.589z"/>
		<path fill="#4F80FF" d="M42.348,29.17c-0.014-0.002-0.02-0.014-0.031-0.014h-0.127L42.2,29.17h-3.577h-0.154
			c-0.183,0-0.328,0.146-0.328,0.328v0.128v3.254h4.504v-3.241v-0.155C42.645,29.317,42.512,29.187,42.348,29.17z"/>
		<path fill="#4F80FF" d="M42.348,35.038c-0.014-0.001-0.02-0.012-0.031-0.012h-0.127l0.011,0.012h-3.577h-0.154
			c-0.183,0-0.328,0.146-0.328,0.328v0.129v3.254h4.504v-3.241v-0.155C42.645,35.187,42.512,35.056,42.348,35.038z"/>
	</g>
	<path fill="#808080" d="M29.277,42.532h-0.152c-0.183,0-0.329,0.146-0.329,0.328v0.129v0.428v6.316h0.884v-6.316h8.129v-0.885
		H29.277z"/>
</g>
</svg>
