<?xml version="1.0" encoding="utf-8"?>
<!-- Generator: Adobe Illustrator 16.0.0, SVG Export Plug-In . SVG Version: 6.00 Build 0)  -->
<!DOCTYPE svg PUBLIC "-//W3C//DTD SVG 1.1//EN" "http://www.w3.org/Graphics/SVG/1.1/DTD/svg11.dtd">
<svg version="1.1" id="圖層_1" xmlns="http://www.w3.org/2000/svg" xmlns:xlink="http://www.w3.org/1999/xlink" x="0px" y="0px"
	 width="66px" height="66px" viewBox="0 0 66 66" enable-background="new 0 0 66 66" xml:space="preserve">
<g>
	<path fill="#3ACCBA" d="M65.993,32.999c0,18.222-14.772,32.998-32.993,32.998c-18.222,0-32.993-14.773-32.993-32.998
		C0.007,14.778,14.778,0.004,33,0.004C51.221,0.004,65.993,14.778,65.993,32.999z"/>
	<g>
		<circle fill="#FFFFFF" cx="33.002" cy="20.619" r="6.735"/>
		<g>
			<path fill="#FFFFFF" d="M39.779,50.803l-0.021,0.188C39.902,50.811,39.822,50.902,39.779,50.803z"/>
			<path fill="#FFFFFF" d="M25.892,37.426l0.105,13.752l0.002,0.004c0.196,0.467,0.658,0.793,1.197,0.793h0.508h10.142h0.613
				c0.342,0,0.65-0.141,0.883-0.355l0.106-0.133c0.186-0.225,0.31-0.496,0.31-0.813c0,0.068,0.014,0.102,0.021,0.131L39.8,38.967
				L25.892,37.426z"/>
		</g>
	</g>
	<path fill="#4F80FF" d="M25.931,42.496L50.6,36.352l0.188-0.188l0.245-0.244c0.078-0.078,0.119-0.174,0.175-0.266
		c0.298-0.498,0.255-1.145-0.176-1.574l-0.36-0.361L27.645,27.37l0.007-0.006h-0.03H27.04c-0.514,0-0.946,0.303-1.157,0.734
		l-0.061,0.146l0.031,3.874L25.931,42.496z"/>
</g>
</svg>
