<?xml version="1.0" encoding="utf-8"?>
<!-- Generator: Adobe Illustrator 16.0.0, SVG Export Plug-In . SVG Version: 6.00 Build 0)  -->
<!DOCTYPE svg PUBLIC "-//W3C//DTD SVG 1.1//EN" "http://www.w3.org/Graphics/SVG/1.1/DTD/svg11.dtd">
<svg version="1.1" id="圖層_1" xmlns="http://www.w3.org/2000/svg" xmlns:xlink="http://www.w3.org/1999/xlink" x="0px" y="0px"
	 width="66px" height="66px" viewBox="0 0 66 66" enable-background="new 0 0 66 66" xml:space="preserve">
<g>
	<circle fill="#3ACCBA" cx="33" cy="33" r="32.996"/>
	<g>
		<polygon fill="#FFFFFF" points="15.374,44.746 21.5,49.736 21.5,26.702 15.374,21.187 		"/>
		<path fill="#FFFFFF" d="M48.818,22.028v-0.373l-0.076-0.066l-6.096-5.323l-23.95,0.809h-0.161c-0.011,0-0.021,0.007-0.032,0.007
			c-0.702,0.018-1.267,0.587-1.267,1.294v0.481v0.027l0.015-0.015l5.413,4.856l0.035,0.037c0.005,0.005,0.01,0.007,0.017,0.01
			c0.218,0.212,0.492,0.316,0.772,0.344l0.312-0.01l23.717-0.777C48.234,23.329,48.818,22.746,48.818,22.028z"/>
		<path fill="#FFFFFF" d="M49.326,26.168h-0.508l-22.271,0.723l-0.871,0.027c-0.547,0.168-0.946,0.669-0.925,1.268L24.75,47.811
			v0.612v1.3l1.217-0.018c0.031,0.003,0.056,0.018,0.084,0.018h0.511l-0.032-0.031l22.188-0.584l-0.003,0.006h0.611
			c0.041,0,0.073-0.021,0.114-0.023h1.187v-1.277v-0.51V28.08v-0.613C50.627,26.75,50.043,26.168,49.326,26.168z"/>
	</g>
	<polygon fill="#4F80FF" points="41.42,19.68 46.066,23.372 46.199,33.945 29.547,34.568 29.397,24.231 24.582,20.269 	"/>
</g>
</svg>
