<?xml version="1.0" encoding="utf-8"?>
<!-- Generator: Adobe Illustrator 16.0.0, SVG Export Plug-In . SVG Version: 6.00 Build 0)  -->
<!DOCTYPE svg PUBLIC "-//W3C//DTD SVG 1.1//EN" "http://www.w3.org/Graphics/SVG/1.1/DTD/svg11.dtd">
<svg version="1.1" id="圖層_1" xmlns="http://www.w3.org/2000/svg" xmlns:xlink="http://www.w3.org/1999/xlink" x="0px" y="0px"
	 width="24px" height="24px" viewBox="0 0 24 24" enable-background="new 0 0 24 24" xml:space="preserve">
<path fill="none" d="M0,0h24v24H0V0z"/>
<path fill="#4F80FF" d="M18,8.5h-1v-2c0-2.76-2.24-5-5-5s-5,2.24-5,5v2H6c-1.1,0-2,0.9-2,2v10c0,1.1,0.9,2,2,2h12c1.1,0,2-0.9,2-2
	v-10C20,9.4,19.1,8.5,18,8.5z M12,17.5c-1.1,0-2-0.9-2-2s0.9-2,2-2s2,0.9,2,2S13.1,17.5,12,17.5z M15.1,8.5H8.9v-2
	c0-1.71,1.39-3.1,3.1-3.1s3.1,1.39,3.1,3.1V8.5z"/>
</svg>
