<?xml version="1.0" encoding="utf-8"?>
<!-- Generator: Adobe Illustrator 16.0.0, SVG Export Plug-In . SVG Version: 6.00 Build 0)  -->
<!DOCTYPE svg PUBLIC "-//W3C//DTD SVG 1.1//EN" "http://www.w3.org/Graphics/SVG/1.1/DTD/svg11.dtd">
<svg version="1.1" id="圖層_1" xmlns="http://www.w3.org/2000/svg" xmlns:xlink="http://www.w3.org/1999/xlink" x="0px" y="0px"
	 width="300px" height="65px" viewBox="0 0 300 65" enable-background="new 0 0 300 65" xml:space="preserve">
<g>
	<g>
		<g>
			<g>
				<path fill="#4F80FF" d="M65.736,38.35c2.203-3.768,3.491-8.125,3.491-12.79c0-14.006-11.396-25.394-25.397-25.394
					c-13.998,0-25.395,11.388-25.395,25.394c0,1.795,0.196,3.545,0.552,5.24l9.786,8.807L65.736,38.35z"/>
			</g>
		</g>
		<g>
			<path fill="#B4E1C6" d="M38.333,6.526h0.149h0.343c0.395,0,0.725-0.224,0.903-0.547l0.013-0.01l1.882-3.363l0.014,0.014V2.583
				V2.494c0-0.145-0.117-0.263-0.265-0.263h-0.104L34.88,5.745l-0.009-0.012v0.016v0.11c0,0.144,0.119,0.265,0.271,0.265
				l3.206,0.389L38.333,6.526z"/>
			<path fill="#B4E1C6" d="M44.762,0.619h-0.064h-0.424c-0.415,0-0.764,0.248-0.934,0.594l-0.055,0.202L39.22,15.086l0,0v0.004
				v0.486c0,0.578,0.463,1.046,1.035,1.046h0.324h0.083l-0.007-0.017l8.69-1.454l14.818,7.514l-0.006,0.009h0.015h0.479
				c0.574,0,1.038-0.474,1.038-1.049v-0.408L57.967,4.474c-0.229-0.15-0.468-0.28-0.701-0.425L44.747,0.632L44.762,0.619z"/>
			<path fill="#B4E1C6" d="M37.272,1.053c-7.489,2.007-13.627,7.343-16.694,14.335l0.522,5.754h-0.012l0.017,0.021l0.329,0.326
				c0.405,0.407,1.066,0.407,1.468,0l0.267-0.262l0.024-0.023h-0.012l6.546-7.386L37.272,1.053z"/>
			<g>
				<path fill="#B4E1C6" d="M30.578,30.935l-0.247-0.248l-0.044-0.042v0.01l-9.56-7.056l0.015-0.014h-0.029H20.25
					c-0.511,0-0.912,0.382-1.001,0.862c-0.015,0.062-0.036,0.115-0.036,0.184v0.339l-0.355,5.058
					c0.047,0.276,0.122,0.548,0.181,0.822l9.085,8.177l2.662-6.927v-0.005C30.957,31.711,30.898,31.249,30.578,30.935z"/>
			</g>
			<g>
				<path fill="#B4E1C6" d="M37.338,27.769l7.134,3.724l3.193,7.465l7.574-0.258l7.557-11.739l-0.002-0.026
					c0.292-0.406,0.271-0.963-0.093-1.333l-0.255-0.251l-0.036-0.037v0.018l-12.129-6.521l-0.055-0.033
					c-0.245-0.094-0.517-0.094-0.76,0l-0.04,0.022l-12.033,6.877v-0.018l-0.042,0.045l-0.302,0.3c-0.409,0.407-0.409,1.067,0,1.473
					L37.338,27.769z"/>
			</g>
			<g>
				<polygon fill="#B4E1C6" points="62.204,36.324 62.392,38.489 64.769,36.29 64.769,34.724 64.439,34.376 				"/>
				<path fill="#B4E1C6" d="M64.459,34.364h0.061c0.141,0,0.249,0.111,0.249,0.247l-0.154-0.146L64.459,34.364z"/>
				<polygon fill="#B4E1C6" points="64.426,34.364 64.439,34.376 64.459,34.364 				"/>
				<path fill="#B4E1C6" d="M64.52,34.364h-0.061l-0.02,0.012l0.329,0.348v-0.112C64.769,34.476,64.66,34.364,64.52,34.364z"/>
			</g>
		</g>
		<g>
			<polygon fill="#27425A" points="27.043,39.737 18.671,32.202 3.816,39.845 11.56,47.466 			"/>
			<polygon fill="#27425A" points="27.72,64.151 27.72,64.151 27.528,41.315 27.535,41.315 27.528,40.89 19.501,44.892 
				19.605,57.634 27.72,64.244 			"/>
			<g>
				<path fill="#27425A" d="M32.111,48.547l-2.853-7.594c-0.216,0.151-0.261,0.339-0.365,0.577l0.193,22.425
					c0.172,0.475,0.606,0.825,1.159,0.88l35.888-0.946c0.67-0.061,1.206-0.637,1.206-1.329v-0.78l-0.148-14.384L32.111,48.547z"/>
			</g>
			<g>
				<polygon fill="#27425A" points="68.571,46.142 65.877,39.612 30.546,40.8 32.982,47.296 				"/>
			</g>
			<g>
				<path fill="#27425A" d="M69.765,31.561c-0.602,2.536-1.557,4.996-2.882,7.283l0.118,0.292l0.205,0.5l15.29,3.816L69.765,31.561z
					"/>
			</g>
		</g>
	</g>
	<g>
		<g>
			<polygon fill="#4F80FF" points="96.015,27.655 92.115,27.655 92.115,42.567 92.115,43.208 92.115,46.468 104.335,46.468 
				104.335,42.567 96.015,42.567 			"/>
			<rect x="108.968" y="27.655" fill="#4F80FF" width="3.901" height="18.813"/>
			<polygon fill="#4F80FF" points="131.518,40.22 121.376,27.689 121.352,27.71 121.352,27.655 117.447,27.655 117.447,46.468 
				121.352,46.468 121.352,33.864 131.518,46.426 131.518,46.468 131.552,46.468 131.594,46.521 131.662,46.468 135.424,46.468 
				135.424,27.655 131.518,27.655 			"/>
			<polygon fill="#4F80FF" points="140.104,27.672 140.104,46.487 144.005,46.487 144.005,37.122 144.005,27.672 			"/>
			<polygon fill="#4F80FF" points="156.678,27.708 151.674,27.708 144.005,37.122 146.569,40.219 151.678,46.535 156.678,46.535 
				149.071,37.119 			"/>
		</g>
		<g>
			<path fill="#4F80FF" d="M208.956,38.888h5.595l-0.125,0.907c-0.184,1.356-0.842,2.46-1.95,3.274
				c-1.068,0.783-2.402,1.179-3.973,1.179c-1.882,0-3.394-0.649-4.497-1.931c-1.068-1.247-1.613-2.951-1.613-5.057
				c0-2.09,0.545-3.784,1.617-5.027c1.1-1.28,2.611-1.925,4.493-1.925c1.011,0,1.945,0.22,2.768,0.664
				c0.597,0.317,1.159,0.761,1.658,1.315l0.126,0.139l3.339-1.604l-0.211-0.246c-0.807-0.94-1.745-1.69-2.792-2.23
				c-1.401-0.718-3.042-1.083-4.888-1.083c-1.411,0-2.745,0.236-3.954,0.703c-1.207,0.472-2.29,1.16-3.221,2.066
				c-0.928,0.926-1.646,1.985-2.117,3.145c-0.473,1.16-0.714,2.46-0.714,3.862c0,1.333,0.246,2.627,0.736,3.847
				c0.483,1.214,1.175,2.276,2.056,3.168c0.911,0.919,1.965,1.618,3.138,2.071c1.175,0.452,2.545,0.688,4.076,0.688
				c3.137,0,5.479-0.867,7.175-2.633c1.679-1.756,2.533-4.291,2.533-7.542v-0.394h-9.255V38.888z"/>
			<path fill="#4F80FF" d="M237.809,30.14c-0.935-0.916-2.028-1.631-3.257-2.128c-2.448-0.998-5.263-0.989-7.692,0
				c-1.209,0.49-2.299,1.206-3.222,2.128c-0.968,0.928-1.704,1.994-2.191,3.158c-0.5,1.174-0.746,2.441-0.746,3.765
				c0,1.32,0.246,2.588,0.746,3.761c0.492,1.175,1.224,2.24,2.182,3.16c0.926,0.92,2.018,1.637,3.231,2.131
				c1.208,0.496,2.499,0.748,3.838,0.748c1.328,0,2.622-0.252,3.838-0.748c1.222-0.494,2.324-1.211,3.279-2.131
				c0.938-0.92,1.661-1.98,2.151-3.145c0.487-1.164,0.737-2.433,0.737-3.776c0-1.328-0.25-2.597-0.748-3.774
				C239.46,32.113,238.737,31.053,237.809,30.14z M235.088,41.839c-1.145,1.301-2.622,1.957-4.383,1.957
				c-1.787,0-3.268-0.656-4.404-1.942c-1.112-1.257-1.677-2.864-1.677-4.791c0-1.892,0.574-3.494,1.699-4.771
				c1.151-1.294,2.626-1.955,4.382-1.955c1.729,0,3.198,0.66,4.364,1.958c1.14,1.281,1.72,2.885,1.72,4.767
				C236.789,38.971,236.221,40.579,235.088,41.839z"/>
			<path fill="#4F80FF" d="M278.888,29.489c-0.901-0.625-1.966-1.079-3.15-1.349c-1.238-0.285-3.413-0.422-6.479-0.422h-3.415
				v18.612h4.337c2.554,0,4.456-0.14,5.638-0.416c1.154-0.265,2.185-0.711,3.069-1.334c1.175-0.817,2.043-1.838,2.647-3.114
				c0.606-1.28,0.914-2.774,0.914-4.425c0-1.657-0.308-3.148-0.914-4.427C280.931,31.337,280.063,30.317,278.888,29.489z
				 M276.687,41.859c-1.154,1.036-2.873,1.536-5.261,1.536h-1.725V30.64h1.725c2.354,0,4.124,0.524,5.267,1.56
				c1.159,1.053,1.752,2.682,1.752,4.84C278.444,39.195,277.852,40.82,276.687,41.859z"/>
			<path fill="#4F80FF" d="M296.939,38.504c-0.211-0.594-0.52-1.099-0.914-1.505c-0.593-0.61-1.998-1.225-4.064-1.785l-0.263-0.079
				c-1.164-0.306-1.928-0.633-2.395-1.019c-0.541-0.452-0.827-1.087-0.827-1.825c0-0.745,0.321-1.383,0.928-1.854
				c1.012-0.77,2.752-0.833,4.357-0.168c0.352,0.139,0.703,0.322,1.054,0.539l0.247,0.15l1.043-2.409l-0.197-0.105
				c-0.596-0.337-1.222-0.602-1.863-0.789c-0.915-0.278-1.906-0.418-2.938-0.418c-1.866,0-3.336,0.528-4.487,1.613
				c-1.135,1.067-1.689,2.425-1.689,4.146c0,1.285,0.335,2.258,1.007,2.966c0.717,0.747,2.007,1.377,3.833,1.868
				c1.627,0.439,2.585,0.838,3.101,1.301c0.403,0.352,0.883,1.008,0.883,2.144c0,0.841-0.35,1.569-1,2.113
				c-1.226,1.028-3.32,1.02-5.108-0.021c-0.548-0.313-1.103-0.736-1.657-1.252l-0.225-0.206l-1.604,2.646l0.169,0.136
				c0.798,0.665,1.622,1.175,2.451,1.518c1.061,0.438,2.248,0.66,3.54,0.66c2.159,0,3.823-0.569,5.086-1.742
				c1.248-1.156,1.856-2.654,1.856-4.584C297.263,39.782,297.157,39.101,296.939,38.504z"/>
			<path fill="#4F80FF" d="M253.299,26.912c-5.596,0-10.146,4.556-10.146,10.15c0,5.599,4.55,10.153,10.146,10.153
				c5.601,0,10.154-4.555,10.154-10.153C263.453,31.468,258.899,26.912,253.299,26.912z M256.84,29.647l-2.849-0.778
				C255.007,28.955,255.967,29.227,256.84,29.647z M260.166,41.587V41.2v-0.045c0-0.049-0.038-0.091-0.094-0.091h-0.021h-0.01
				l0.005,0.01l-0.808,0.703l0.064,0.785l0.458-0.421c-1.51,1.913-3.841,3.146-6.462,3.146c-2.126,0-4.06-0.819-5.523-2.148
				l1.455-3.773l-0.014-0.041c0.04-0.119,0.037-0.252-0.059-0.35l-0.075-0.082l-0.017-0.015v0.009l-3.202-2.364l0.005-0.005h-0.01
				h-0.147c-0.174,0-0.309,0.133-0.338,0.289c-0.009,0.021-0.017,0.039-0.017,0.059v0.117l-0.12,1.702
				c-0.104-0.524-0.162-1.067-0.162-1.623c0-1.383,0.345-2.683,0.951-3.829l3.194-1.096c0.01-0.004,0.02-0.01,0.029-0.014
				c0.062-0.026,0.113-0.072,0.15-0.128l0.012-0.011l1.905-2.899c0.636-0.158,1.298-0.251,1.981-0.251
				c0.131,0,0.258,0.014,0.39,0.02c-0.113,0.019-0.216,0.083-0.265,0.186l-0.019,0.064l-1.357,4.575v0.158
				c0,0.197,0.158,0.352,0.347,0.352h0.111h0.028l-0.005-0.004l2.902-0.486l4.961,2.514h0.159c0.195,0,0.351-0.156,0.351-0.348
				V35.73l-2.269-4.922c1.768,1.51,2.893,3.751,2.893,6.254C261.526,38.734,261.025,40.288,260.166,41.587z"/>
			<path fill="#4F80FF" d="M259.817,37.109l-0.014-0.011v0.008l-4.052-2.186l-0.021-0.01c-0.082-0.029-0.172-0.029-0.254,0
				l-0.016,0.004l-4.021,2.303v-0.005l-0.019,0.015l-0.099,0.101c-0.132,0.14-0.132,0.356,0,0.496l0.094,0.097l2.39,1.242
				l2.061,4.811l4.068-6.321v-0.011c0.097-0.135,0.093-0.322-0.029-0.447L259.817,37.109z"/>
			<path fill="#4F80FF" d="M251.755,30.819h0.046h0.118c0.129,0,0.245-0.078,0.302-0.184l0.005-0.005l0.63-1.128l0.007,0.012v-0.018
				v-0.028c0-0.05-0.045-0.09-0.088-0.09h-0.038l-2.14,1.174v0.041c0,0.047,0.037,0.086,0.089,0.086l1.073,0.13L251.755,30.819z"/>
		</g>
		<g>
			<polygon fill="#B4E1C6" points="178.139,27.655 178.077,27.655 174.236,27.655 174.175,27.655 174.192,27.816 170.291,41.374 
				166.344,27.717 166.351,27.655 166.326,27.655 162.451,27.655 162.428,27.655 162.445,27.707 160.502,46.468 164.4,46.468 
				165.434,36.498 168.825,46.468 171.765,46.468 175.102,36.61 176.127,46.468 180.026,46.468 178.091,27.797 			"/>
			<polygon fill="#B4E1C6" points="198.115,27.674 193.113,27.674 189.42,33.985 185.713,27.674 180.709,27.674 187.471,37.386 
				187.471,46.452 191.37,46.452 191.37,37.382 			"/>
		</g>
	</g>
</g>
</svg>
