<?xml version="1.0" encoding="utf-8"?>
<!-- Generator: Adobe Illustrator 16.0.0, SVG Export Plug-In . SVG Version: 6.00 Build 0)  -->
<!DOCTYPE svg PUBLIC "-//W3C//DTD SVG 1.1//EN" "http://www.w3.org/Graphics/SVG/1.1/DTD/svg11.dtd">
<svg version="1.1" id="圖層_1" xmlns="http://www.w3.org/2000/svg" xmlns:xlink="http://www.w3.org/1999/xlink" x="0px" y="0px"
	 width="66px" height="66px" viewBox="0 0 66 66" enable-background="new 0 0 66 66" xml:space="preserve">
<g>
	<circle fill="#3ACCBA" cx="33" cy="33" r="32.996"/>
	<path fill="#4F80FF" d="M38.805,28.682h2.42l-4.436-11.516l-0.021-0.016c-0.162-0.475-0.582-0.813-1.1-0.861l-0.008-0.033
		l-4.926,0.008l0.009-0.008h-0.612c-0.016,0-0.027,0.01-0.042,0.01c-0.515,0.016-0.953,0.326-1.148,0.775l-0.014,0.027
		l-4.496,11.613h2.418l3.695-9.537h4.589L38.805,28.682z"/>
	<path fill="#FFFFFF" d="M50.557,27.793h-0.508H15.831h-0.613c-0.718,0-1.301,0.582-1.301,1.301v0.508v0.219l5.334,19.916h0.352
		h0.857h11.545h1.771h11.529h0.721h0.488l5.344-19.916v-0.116v-0.613C51.857,28.373,51.275,27.793,50.557,27.793z M32.005,29.82
		v5.445H16.588l-1.459-5.445H32.005z M20.133,48.512l-1.357-5.07h13.229v5.07H20.133z M45.633,48.512H33.773v-5.07h13.221
		L45.633,48.512z M49.189,35.266H33.773v-5.444H50.65L49.189,35.266z"/>
	<polygon fill="#4F80FF" points="32.005,35.266 16.588,35.266 15.129,29.82 32.005,29.82 	"/>
	<polygon fill="#4F80FF" points="33.802,48.512 46.109,48.512 47.273,43.441 33.802,43.441 	"/>
	<polygon fill="#4F80FF" points="32.005,48.512 19.696,48.512 18.532,43.441 32.005,43.441 	"/>
	<polygon fill="#4F80FF" points="33.802,35.266 49.219,35.266 50.678,29.82 33.802,29.82 	"/>
</g>
</svg>
