<?xml version="1.0" encoding="utf-8"?>
<!-- Generator: Adobe Illustrator 16.0.0, SVG Export Plug-In . SVG Version: 6.00 Build 0)  -->
<!DOCTYPE svg PUBLIC "-//W3C//DTD SVG 1.1//EN" "http://www.w3.org/Graphics/SVG/1.1/DTD/svg11.dtd">
<svg version="1.1" id="圖層_1" xmlns="http://www.w3.org/2000/svg" xmlns:xlink="http://www.w3.org/1999/xlink" x="0px" y="0px"
	 width="65.992px" height="65.992px" viewBox="0 0 65.992 65.992" enable-background="new 0 0 65.992 65.992" xml:space="preserve">
<g>
	<circle fill="#3ACCBA" cx="32.996" cy="32.996" r="32.996"/>
	<g>
		<path fill="#FFFFFF" d="M17.627,49.729h31.234V19.391H17.627V49.729z M31.141,35.212c-2.151-0.484-3.667-1.163-4.548-2.031
			c-0.882-0.872-1.325-1.921-1.325-3.143c0-0.811,0.173-1.55,0.515-2.207c0.343-0.656,0.826-1.229,1.444-1.707
			c0.798-0.618,1.686-1.043,2.665-1.278c0.594-0.147,1.466-0.259,2.614-0.328v-1.733h1.637v1.763
			c1.822,0.108,3.254,0.455,4.295,1.043c1.89,0.93,2.871,2.44,2.938,4.525h-4.438c-0.09-0.771-0.254-1.343-0.502-1.696
			c-0.418-0.621-1.187-0.962-2.295-1.021v4.973c2.661,0.712,4.452,1.343,5.373,1.895c1.51,0.91,2.266,2.197,2.266,3.854
			c0,2.192-1.041,3.78-3.122,4.778c-1.269,0.604-2.774,0.963-4.517,1.063v2.628h-1.636v-2.604c-2.214-0.186-3.871-0.563-4.961-1.112
			c-1.921-1.002-2.865-2.708-2.834-5.115h4.556c0.155,1.093,0.376,1.829,0.657,2.205c0.438,0.584,1.298,0.962,2.582,1.136v-5.576
			L31.141,35.212z"/>
		<path fill="#FFFFFF" d="M32.506,27.432c-0.98,0.011-1.704,0.218-2.177,0.602c-0.473,0.391-0.709,0.912-0.709,1.585
			c0,0.729,0.353,1.313,1.063,1.735c0.39,0.237,0.998,0.453,1.822,0.65L32.506,27.432L32.506,27.432z"/>
		<path fill="#FFFFFF" d="M37.109,38.517c0-0.75-0.33-1.345-0.982-1.773c-0.393-0.253-1.051-0.518-1.984-0.784v5.101
			c0.873-0.086,1.519-0.242,1.918-0.469C36.759,40.188,37.109,39.496,37.109,38.517z"/>
	</g>
	<g>
		<path fill="#4F80FF" d="M39.516,34.265c-0.922-0.552-2.713-1.183-5.373-1.895v-4.973c1.107,0.06,1.877,0.4,2.295,1.021
			c0.246,0.354,0.41,0.925,0.502,1.696h4.437c-0.067-2.085-1.049-3.596-2.938-4.525c-1.041-0.588-2.472-0.935-4.295-1.043v-1.763
			h-1.636v1.733c-1.148,0.069-2.021,0.181-2.614,0.328c-0.979,0.235-1.867,0.66-2.665,1.278c-0.618,0.478-1.102,1.051-1.444,1.707
			c-0.342,0.657-0.515,1.396-0.515,2.207c0,1.222,0.443,2.271,1.325,3.143c0.881,0.868,2.396,1.546,4.548,2.031l1.365,0.313v5.574
			c-1.284-0.173-2.145-0.551-2.582-1.135c-0.281-0.376-0.502-1.113-0.657-2.205h-4.556c-0.031,2.407,0.913,4.113,2.834,5.115
			c1.09,0.549,2.747,0.928,4.961,1.111v2.604h1.636V43.96c1.741-0.102,3.248-0.46,4.517-1.063c2.082-0.998,3.123-2.586,3.123-4.779
			C41.779,36.462,41.023,35.175,39.516,34.265z M32.506,32.004c-0.824-0.197-1.433-0.413-1.822-0.65
			c-0.711-0.423-1.063-1.006-1.063-1.735c0-0.673,0.236-1.194,0.709-1.585c0.473-0.384,1.196-0.591,2.177-0.602L32.506,32.004
			L32.506,32.004z M36.061,40.59c-0.399,0.228-1.045,0.384-1.918,0.47v-5.102c0.935,0.268,1.592,0.531,1.984,0.784
			c0.652,0.43,0.982,1.022,0.982,1.774C37.109,39.496,36.759,40.188,36.061,40.59z"/>
		<path fill="#4F80FF" d="M47.561,16.259h-0.509H19.538h-0.612c-0.72,0-1.299,0.583-1.299,1.301v0.509v1.322h31.234v-1.219v-0.613
			C48.861,16.84,48.277,16.259,47.561,16.259z"/>
	</g>
</g>
</svg>
