<?xml version="1.0" encoding="utf-8"?>
<!-- Generator: Adobe Illustrator 16.0.0, SVG Export Plug-In . SVG Version: 6.00 Build 0)  -->
<!DOCTYPE svg PUBLIC "-//W3C//DTD SVG 1.1//EN" "http://www.w3.org/Graphics/SVG/1.1/DTD/svg11.dtd">
<svg version="1.1" id="圖層_1" xmlns="http://www.w3.org/2000/svg" xmlns:xlink="http://www.w3.org/1999/xlink" x="0px" y="0px"
	 width="66px" height="66px" viewBox="0 0 66 66" enable-background="new 0 0 66 66" xml:space="preserve">
<g>
	<circle fill="#3ACCBA" cx="33.001" cy="33" r="32.995"/>
	<path fill="#FFFFFF" d="M49.604,37.768l-0.057-0.453L46.92,20.3l-0.068-0.544c-0.082-0.638-0.66-1.08-1.301-1.002l-0.447,0.063
		l-19.326,2.753l-0.769,0.121c-0.465,0.213-0.762,0.694-0.676,1.229l2.673,17.374l0.069,0.543l0.149,1.15l1.074-0.16
		c0.026,0,0.05,0.016,0.078,0.014l0.445-0.059l-0.029-0.023l19.27-2.623l-0.004,0.009l0.543-0.071
		c0.039-0.005,0.064-0.029,0.098-0.039l1.051-0.13L49.604,37.768z"/>
	<g>
		<polygon fill="#4F80FF" points="29.089,28.127 43.762,26.04 42.85,19.197 42.752,18.985 27.898,21.099 28.148,21.302 		"/>
		<path fill="#4F80FF" d="M24.146,48.64c-2.016,0.263-3.437,2.106-3.177,4.121c0.262,2.017,2.106,3.438,4.123,3.179
			c2.016-0.261,3.436-2.106,3.176-4.119C28.009,49.802,26.162,48.382,24.146,48.64z M24.841,53.99
			c-0.938,0.121-1.802-0.544-1.919-1.481c-0.125-0.935,0.537-1.799,1.479-1.92c0.938-0.123,1.796,0.539,1.919,1.48
			C26.439,53.009,25.779,53.864,24.841,53.99z"/>
		<path fill="#4F80FF" d="M53.504,43.849l-0.086-1.078c-0.086-0.664-0.627-1.135-1.268-1.202c-0.107-0.024-0.215-0.037-0.326-0.022
			l-0.549,0.072l-26.194,3.391l-4.017-25.14v-0.073v-0.673c0-0.782-0.638-1.415-1.419-1.415h-0.559h-4.009h-0.667
			c-0.784,0-1.423,0.636-1.423,1.419v0.553v0.242h5.081l4.367,25.432l-0.065,0.008l-0.662,0.086
			c-0.781,0.099-1.328,0.812-1.229,1.593l0.072,0.963l0.029,0.238l32.94-4.265L53.504,43.849z"/>
	</g>
</g>
</svg>
