<?xml version="1.0" encoding="utf-8"?>
<!-- Generator: Adobe Illustrator 16.0.0, SVG Export Plug-In . SVG Version: 6.00 Build 0)  -->
<!DOCTYPE svg PUBLIC "-//W3C//DTD SVG 1.1//EN" "http://www.w3.org/Graphics/SVG/1.1/DTD/svg11.dtd">
<svg version="1.1" id="圖層_1" xmlns="http://www.w3.org/2000/svg" xmlns:xlink="http://www.w3.org/1999/xlink" x="0px" y="0px"
	 width="347px" height="347px" viewBox="0 0 347 347" enable-background="new 0 0 347 347" xml:space="preserve">
<g>
	<polygon fill="#3ACCBA" points="219.165,254.801 127.776,254.801 127.776,202.63 156.884,173.521 127.776,145.256 127.776,92.241 
		219.165,92.241 219.165,145.256 190.394,173.521 219.165,202.63 	"/>
	<polygon fill="#FFFFFF" points="214.313,250.757 132.628,250.757 132.628,203.569 162.178,173.521 132.628,144.274 132.628,96.285 
		214.313,96.285 214.313,144.274 184.984,173.521 214.313,203.569 	"/>
	<polygon fill="#4F80FF" points="207.032,243.478 140.716,243.478 140.716,228.92 173.628,207.176 207.032,228.92 	"/>
	<polygon fill="#4F80FF" points="149.678,152.089 173.335,175.243 196.993,152.089 	"/>
	<circle fill="#4F80FF" cx="173.883" cy="200.227" r="2.047"/>
	<circle fill="#4F80FF" cx="173.883" cy="207.863" r="2.047"/>
	<circle fill="#4F80FF" cx="173.884" cy="191.059" r="1.622"/>
	<g>
		<path fill="#FFFFFF" d="M174.444,217.33v1.818c1.01,0.021,4.758,0.156,4.848,3.68h-2.357c-0.044-1.435-1.189-1.818-2.513-1.865
			v4.692c2.288,0.629,5.094,1.48,5.094,4.622c0,2.199-1.437,3.319-2.022,3.703c-1.029,0.672-2.332,0.785-3.116,0.854v2.222h-1.144
			v-2.222c-0.988-0.022-2.378-0.047-3.726-1.26c-1.167-1.053-1.257-2.154-1.257-3.12h2.289c-0.046,0.991,0.539,2.428,2.692,2.474
			v-5.253c-3.681-1.101-4.69-2.043-4.69-4.443c0-1.862,1.122-2.871,1.907-3.366c1.033-0.629,2.245-0.672,2.851-0.695v-1.839
			L174.444,217.33L174.444,217.33L174.444,217.33z M173.278,220.966c-2.424,0.246-2.513,1.705-2.513,2.108
			c0,1.503,1.413,1.931,2.513,2.243V220.966z M174.422,232.928c1.952-0.024,2.761-1.282,2.761-2.382c0-1.681-1.616-2.22-2.761-2.578
			V232.928z"/>
	</g>
</g>
</svg>
