<?xml version="1.0" encoding="utf-8"?>
<!-- Generator: Adobe Illustrator 16.0.0, SVG Export Plug-In . SVG Version: 6.00 Build 0)  -->
<!DOCTYPE svg PUBLIC "-//W3C//DTD SVG 1.1//EN" "http://www.w3.org/Graphics/SVG/1.1/DTD/svg11.dtd">
<svg version="1.1" id="圖層_1" xmlns="http://www.w3.org/2000/svg" xmlns:xlink="http://www.w3.org/1999/xlink" x="0px" y="0px"
	 width="66px" height="66px" viewBox="0 0 66 66" enable-background="new 0 0 66 66" xml:space="preserve">
<g>
	<path fill="#3ACCBA" d="M0.006,32.998c0,18.224,14.771,32.997,32.994,32.997c18.224,0,32.994-14.773,32.994-32.997
		c0-18.22-14.771-32.993-32.994-32.993C14.777,0.005,0.006,14.778,0.006,32.998z"/>
	<g>
		<circle fill="#FFFFFF" cx="32.998" cy="20.619" r="6.735"/>
		<g>
			<path fill="#FFFFFF" d="M26.219,50.803l0.021,0.187C26.095,50.812,26.176,50.901,26.219,50.803z"/>
			<path fill="#FFFFFF" d="M40.106,37.427l-0.104,13.752l-0.002,0.003c-0.199,0.468-0.658,0.794-1.197,0.794h-0.51H28.152h-0.611
				c-0.344,0-0.652-0.141-0.885-0.357l-0.106-0.131c-0.184-0.225-0.31-0.498-0.31-0.813c0,0.067-0.012,0.101-0.021,0.13L26.2,38.967
				L40.106,37.427z"/>
		</g>
	</g>
	<path fill="#4F80FF" d="M40.067,42.497l-24.669-6.145l-0.187-0.188l-0.245-0.245c-0.078-0.078-0.121-0.173-0.175-0.266
		c-0.299-0.498-0.257-1.145,0.176-1.574l0.358-0.36l23.027-6.35l-0.006-0.006h0.03h0.582c0.513,0,0.944,0.303,1.153,0.734
		l0.062,0.146l-0.028,3.874L40.067,42.497z"/>
</g>
</svg>
